<svg xmlns="http://www.w3.org/2000/svg" xmlns:xlink="http://www.w3.org/1999/xlink" viewBox="0 0 4.19 4.19"><defs><style>.cls-1{fill:url(#linear-gradient);}.cls-2{fill:#fff;fill-rule:evenodd;}</style><linearGradient id="linear-gradient" x1="2.1" y1="-2.3" x2="2.1" y2="4.59" gradientUnits="userSpaceOnUse"><stop offset="0.32" stop-color="#20a9e5"/><stop offset="0.67" stop-color="#1686c3"/></linearGradient></defs><title>Ativo 3</title><g id="Camada_2" data-name="Camada 2"><g id="Layer_1" data-name="Layer 1"><path class="cls-1" d="M4.19,2.1A2.1,2.1,0,1,1,2.1,0,2.1,2.1,0,0,1,4.19,2.1Z"/><path class="cls-2" d="M.83,3a1.23,1.23,0,0,0,.57-.1,1.09,1.09,0,0,0,.23-.14.5.5,0,0,1-.24-.06.53.53,0,0,1-.26-.29s0,0,0,0a.42.42,0,0,0,.2,0l-.13,0A.54.54,0,0,1,.93,1.8s0,0,0,0a.55.55,0,0,0,.22.06l-.09-.08A.57.57,0,0,1,1,1.13s0,0,0,0a1.54,1.54,0,0,0,1,.53l.12,0s0,0,0,0a.55.55,0,0,1,.27-.58.56.56,0,0,1,.65.08.07.07,0,0,0,.06,0,1,1,0,0,0,.29-.11l0,0a.5.5,0,0,1-.23.3,1.46,1.46,0,0,0,.3-.07s0,0,0,0a.84.84,0,0,1-.23.23.08.08,0,0,0,0,.05,1.56,1.56,0,0,1-.38,1.07,1.46,1.46,0,0,1-.92.52A1.6,1.6,0,0,1,.84,3Z"/></g></g></svg>